<?xml version="1.0" standalone="no"?>
<!DOCTYPE svg PUBLIC "-//W3C//DTD SVG 20010904//EN"
 "http://www.w3.org/TR/2001/REC-SVG-20010904/DTD/svg10.dtd">
<svg version="1.0" xmlns="http://www.w3.org/2000/svg"
 width="98%"  viewBox="0 0 415.000000 106.000000"
 preserveAspectRatio="xMidYMid meet">

<g transform="translate(0.000000,106.000000) scale(0.100000,-0.100000)"
fill="#000000" stroke="none">
<path d="M208 530 l206 -530 161 0 162 0 -56 143 c-31 78 -124 316 -206 529
l-150 388 -161 0 -161 0 205 -530z"/>
<path d="M741 538 c0 -289 4 -514 9 -503 4 11 94 243 200 515 106 272 194 498
197 503 2 4 -88 7 -201 7 l-206 0 1 -522z"/>
<path d="M1210 530 l0 -530 361 2 361 3 48 125 c27 69 49 131 50 138 0 9 -80
12 -365 12 l-366 0 3 68 3 67 243 5 244 5 43 113 43 112 -289 0 -289 0 0 65 0
65 316 2 316 3 53 138 53 137 -414 0 -414 0 0 -530z"/>
<path d="M2100 683 l0 -378 139 355 c76 196 142 366 145 378 7 22 7 22 -138
22 l-146 0 0 -377z"/>
<path d="M2960 920 l0 -140 120 0 120 0 0 -250 0 -250 -120 0 -120 0 0 -140 0
-140 286 2 286 3 49 125 c27 69 49 131 49 138 0 9 -41 12 -170 12 l-170 0 0
250 0 250 119 0 120 0 51 132 c29 73 54 136 56 140 3 5 -148 8 -335 8 l-341 0
0 -140z"/>
<path d="M3904 921 c-57 -26 -87 -72 -92 -140 -4 -62 17 -105 71 -145 40 -30
144 -30 183 0 45 33 67 70 71 121 13 127 -118 218 -233 164z"/>
<path d="M3929 471 c-45 -14 -80 -43 -100 -82 -57 -112 21 -239 146 -239 88 0
154 60 163 148 8 89 -52 163 -143 175 -22 3 -52 2 -66 -2z"/>
<path d="M2100 140 l0 -140 348 0 347 0 47 123 c26 67 50 130 54 140 6 16 -17
17 -395 17 l-401 0 0 -140z"/>
</g>
</svg>
